<?xml version="1.0" encoding="UTF-8" standalone="no"?>
<svg
   xmlns:dc="http://purl.org/dc/elements/1.1/"
   xmlns:cc="http://creativecommons.org/ns#"
   xmlns:rdf="http://www.w3.org/1999/02/22-rdf-syntax-ns#"
   xmlns:svg="http://www.w3.org/2000/svg"
   xmlns="http://www.w3.org/2000/svg"
   height="164.7858"
   width="450"
   xml:space="preserve"
   viewBox="-0.2 0 450.00001 164.7858"
   y="0px"
   x="0px"
   id="Layer_1"
   version="1.1"><metadata
   id="metadata141"><rdf:RDF><cc:Work
       rdf:about=""><dc:format>image/svg+xml</dc:format><dc:type
         rdf:resource="http://purl.org/dc/dcmitype/StillImage" /><dc:title></dc:title></cc:Work></rdf:RDF></metadata><defs
   id="defs139" />
<style
   id="style2"
   type="text/css">
	.st0{fill:#808285;}
	.st1{fill:#A6CE39;}
	.st2{fill:#A7A9AC;}
	.st3{fill:none;stroke:#6D6E71;stroke-width:0.3066;}
</style>
<g
   transform="matrix(1.8424689,0,0,1.8424689,-338.90336,-647.50115)"
   id="g134">
	<g
   id="g32">
		<path
   style="fill:#808285"
   id="path4"
   d="m 313.4,390.7 c -0.9,0 -1.6,0.3 -2.1,0.9 -0.5,0.6 -0.8,1.5 -0.8,2.6 0,1.1 0.2,2 0.7,2.6 0.5,0.6 1.2,0.9 2.1,0.9 0.4,0 0.8,0 1.1,-0.1 0.4,-0.1 0.8,-0.2 1.1,-0.3 v 1.3 c -0.7,0.3 -1.6,0.4 -2.5,0.4 -1.4,0 -2.4,-0.4 -3.1,-1.2 -0.7,-0.8 -1.1,-2 -1.1,-3.5 0,-1 0.2,-1.8 0.5,-2.5 0.4,-0.7 0.9,-1.3 1.5,-1.7 0.7,-0.4 1.5,-0.6 2.4,-0.6 0.9,0 1.8,0.2 2.6,0.6 l -0.5,1.3 c -0.3,-0.1 -0.6,-0.3 -1,-0.4 -0.4,-0.1 -0.5,-0.3 -0.9,-0.3 z"
   class="st0" />
		<path
   style="fill:#808285"
   id="path6"
   d="m 323.7,395.3 c 0,1.1 -0.3,2 -0.9,2.7 -0.6,0.7 -1.4,1 -2.5,1 -0.7,0 -1.2,-0.1 -1.7,-0.4 -0.5,-0.3 -0.9,-0.7 -1.2,-1.3 -0.3,-0.6 -0.4,-1.2 -0.4,-1.9 0,-1.1 0.3,-2 0.9,-2.7 0.6,-0.6 1.4,-1 2.5,-1 1,0 1.8,0.3 2.4,1 0.6,0.6 0.9,1.5 0.9,2.6 z m -5.1,0 c 0,1.6 0.6,2.4 1.8,2.4 1.2,0 1.8,-0.8 1.8,-2.4 0,-1.6 -0.6,-2.4 -1.8,-2.4 -0.6,0 -1.1,0.2 -1.4,0.6 -0.2,0.4 -0.4,1 -0.4,1.8 z"
   class="st0" />
		<path
   style="fill:#808285"
   id="path8"
   d="m 331.6,398.8 h -1.5 v -4.3 c 0,-0.5 -0.1,-0.9 -0.3,-1.2 -0.2,-0.3 -0.6,-0.4 -1,-0.4 -0.6,0 -1.1,0.2 -1.4,0.6 -0.3,0.4 -0.4,1 -0.4,1.9 v 3.5 h -1.5 v -7 h 1.2 l 0.2,0.9 h 0.1 c 0.2,-0.3 0.5,-0.6 0.9,-0.8 0.4,-0.2 0.8,-0.3 1.3,-0.3 1.7,0 2.5,0.9 2.5,2.6 v 4.5 z"
   class="st0" />
		<path
   style="fill:#808285"
   id="path10"
   d="m 338.4,396.8 c 0,0.7 -0.2,1.2 -0.7,1.6 -0.5,0.4 -1.2,0.5 -2.1,0.5 -0.9,0 -1.7,-0.1 -2.3,-0.4 v -1.3 c 0.8,0.4 1.6,0.6 2.3,0.6 0.9,0 1.4,-0.3 1.4,-0.8 0,-0.2 -0.1,-0.3 -0.2,-0.4 -0.1,-0.1 -0.3,-0.2 -0.5,-0.4 -0.2,-0.1 -0.6,-0.3 -1,-0.4 -0.8,-0.3 -1.4,-0.6 -1.6,-0.9 -0.3,-0.3 -0.4,-0.7 -0.4,-1.2 0,-0.6 0.2,-1.1 0.7,-1.4 0.5,-0.3 1.1,-0.5 2,-0.5 0.8,0 1.6,0.2 2.3,0.5 l -0.5,1.1 c -0.8,-0.3 -1.4,-0.5 -1.9,-0.5 -0.8,0 -1.2,0.2 -1.2,0.7 0,0.2 0.1,0.4 0.3,0.6 0.2,0.2 0.7,0.4 1.3,0.6 0.6,0.2 1,0.4 1.3,0.6 0.3,0.2 0.5,0.4 0.6,0.6 0.2,0.2 0.2,0.5 0.2,0.8 z"
   class="st0" />
		<path
   style="fill:#808285"
   id="path12"
   d="m 346.3,395.3 c 0,1.1 -0.3,2 -0.9,2.7 -0.6,0.7 -1.4,1 -2.5,1 -0.7,0 -1.2,-0.1 -1.7,-0.4 -0.5,-0.3 -0.9,-0.7 -1.2,-1.3 -0.3,-0.6 -0.4,-1.2 -0.4,-1.9 0,-1.1 0.3,-2 0.9,-2.7 0.6,-0.6 1.4,-1 2.5,-1 1,0 1.8,0.3 2.4,1 0.6,0.6 0.9,1.5 0.9,2.6 z m -5.2,0 c 0,1.6 0.6,2.4 1.8,2.4 1.2,0 1.8,-0.8 1.8,-2.4 0,-1.6 -0.6,-2.4 -1.8,-2.4 -0.6,0 -1.1,0.2 -1.4,0.6 -0.2,0.4 -0.4,1 -0.4,1.8 z"
   class="st0" />
		<path
   style="fill:#808285"
   id="path14"
   d="m 351.5,391.7 c 0.3,0 0.5,0 0.7,0.1 l -0.1,1.4 c -0.2,-0.1 -0.4,-0.1 -0.7,-0.1 -0.6,0 -1.1,0.2 -1.5,0.6 -0.4,0.4 -0.6,0.9 -0.6,1.5 v 3.7 H 348 v -7 h 1.2 l 0.2,1.2 h 0.1 c 0.2,-0.4 0.5,-0.8 0.9,-1 0.3,-0.3 0.7,-0.4 1.1,-0.4 z"
   class="st0" />
		<path
   style="fill:#808285"
   id="path16"
   d="m 356.2,397.7 c 0.4,0 0.7,-0.1 1.1,-0.2 v 1.1 c -0.2,0.1 -0.4,0.1 -0.6,0.2 -0.3,0 -0.5,0.1 -0.8,0.1 -1.4,0 -2.1,-0.7 -2.1,-2.2 v -3.8 h -1 v -0.7 l 1,-0.5 0.5,-1.5 h 0.9 v 1.6 h 2 v 1.1 h -2 v 3.8 c 0,0.4 0.1,0.6 0.3,0.8 0.2,0.2 0.4,0.2 0.7,0.2 z"
   class="st0" />
		<path
   style="fill:#808285"
   id="path18"
   d="m 358.6,389.9 c 0,-0.3 0.1,-0.5 0.2,-0.6 0.1,-0.1 0.4,-0.2 0.6,-0.2 0.3,0 0.5,0.1 0.6,0.2 0.1,0.1 0.2,0.3 0.2,0.6 0,0.3 -0.1,0.5 -0.2,0.6 -0.1,0.1 -0.4,0.2 -0.6,0.2 -0.3,0 -0.5,-0.1 -0.6,-0.2 -0.1,-0.1 -0.2,-0.3 -0.2,-0.6 z m 1.6,8.9 h -1.5 v -7 h 1.5 z"
   class="st0" />
		<path
   style="fill:#808285"
   id="path20"
   d="m 367.3,398.8 -0.2,-0.9 H 367 c -0.2,0.3 -0.5,0.6 -0.9,0.8 -0.4,0.2 -0.8,0.3 -1.3,0.3 -0.9,0 -1.5,-0.2 -1.9,-0.6 -0.4,-0.4 -0.6,-1.1 -0.6,-1.9 v -4.6 h 1.5 v 4.3 c 0,0.5 0.1,0.9 0.3,1.2 0.2,0.3 0.6,0.4 1,0.4 0.6,0 1.1,-0.2 1.4,-0.6 0.3,-0.4 0.4,-1 0.4,-1.9 v -3.5 h 1.5 v 7 z"
   class="st0" />
		<path
   style="fill:#808285"
   id="path22"
   d="M 376.5,398.8 H 375 v -4.3 c 0,-0.5 -0.1,-0.9 -0.3,-1.2 -0.2,-0.3 -0.5,-0.4 -1,-0.4 -0.6,0 -1,0.2 -1.3,0.6 -0.3,0.4 -0.4,1 -0.4,1.9 v 3.5 h -1.5 v -7 h 1.2 l 0.2,0.9 h 0.1 c 0.2,-0.3 0.5,-0.6 0.8,-0.8 0.4,-0.2 0.8,-0.3 1.2,-0.3 1.1,0 1.8,0.4 2.1,1.1 h 0.1 c 0.2,-0.3 0.5,-0.6 0.9,-0.8 0.4,-0.2 0.8,-0.3 1.3,-0.3 0.8,0 1.4,0.2 1.8,0.6 0.4,0.4 0.6,1.1 0.6,1.9 v 4.6 h -1.5 v -4.3 c 0,-0.5 -0.1,-0.9 -0.3,-1.2 -0.2,-0.3 -0.5,-0.4 -1,-0.4 -0.6,0 -1,0.2 -1.3,0.5 -0.3,0.4 -0.4,0.9 -0.4,1.7 v 3.7 z"
   class="st0" />
		<path
   style="fill:#808285"
   id="path24"
   d="m 386.5,398.8 v -9.3 h 1.5 v 8 h 3.9 v 1.3 z"
   class="st0" />
		<path
   style="fill:#808285"
   id="path26"
   d="m 396.5,398.9 c -1.1,0 -1.9,-0.3 -2.6,-1 -0.6,-0.6 -0.9,-1.5 -0.9,-2.6 0,-1.1 0.3,-2 0.9,-2.7 0.6,-0.7 1.4,-1 2.4,-1 0.9,0 1.7,0.3 2.2,0.8 0.5,0.6 0.8,1.3 0.8,2.3 v 0.8 h -4.7 c 0,0.7 0.2,1.2 0.6,1.6 0.3,0.4 0.8,0.5 1.5,0.5 0.4,0 0.8,0 1.2,-0.1 0.4,-0.1 0.7,-0.2 1.2,-0.4 v 1.2 c -0.4,0.2 -0.7,0.3 -1.1,0.4 -0.6,0.2 -1,0.2 -1.5,0.2 z m -0.3,-6.1 c -0.5,0 -0.9,0.2 -1.1,0.5 -0.3,0.3 -0.5,0.7 -0.5,1.3 h 3.2 c 0,-0.6 -0.1,-1 -0.4,-1.3 -0.3,-0.3 -0.7,-0.5 -1.2,-0.5 z"
   class="st0" />
		<path
   style="fill:#808285"
   id="path28"
   d="m 405.3,398.8 -0.3,-1 h -0.1 c -0.3,0.4 -0.7,0.7 -1,0.9 -0.3,0.2 -0.8,0.2 -1.3,0.2 -0.7,0 -1.2,-0.2 -1.6,-0.6 -0.4,-0.4 -0.6,-0.9 -0.6,-1.6 0,-0.7 0.3,-1.3 0.8,-1.6 0.5,-0.4 1.4,-0.6 2.5,-0.6 h 1.2 v -0.4 c 0,-0.4 -0.1,-0.8 -0.3,-1 -0.2,-0.2 -0.5,-0.3 -1,-0.3 -0.4,0 -0.7,0.1 -1,0.2 -0.3,0.1 -0.6,0.2 -1,0.4 l -0.5,-1.1 c 0.4,-0.2 0.8,-0.4 1.3,-0.5 0.5,-0.1 0.9,-0.2 1.3,-0.2 0.9,0 1.6,0.2 2,0.6 0.5,0.4 0.7,1 0.7,1.8 v 4.7 h -1.1 z m -2.2,-1 c 0.5,0 1,-0.2 1.3,-0.5 0.3,-0.3 0.5,-0.7 0.5,-1.3 v -0.6 H 404 c -0.7,0 -1.2,0.1 -1.5,0.4 -0.3,0.2 -0.5,0.5 -0.5,1 0,0.3 0.1,0.6 0.3,0.7 0.1,0.2 0.4,0.3 0.8,0.3 z"
   class="st0" />
		<path
   style="fill:#808285"
   id="path30"
   d="m 410.8,398.9 c -0.9,0 -1.6,-0.3 -2,-1 -0.4,-0.7 -0.7,-1.5 -0.7,-2.7 0,-1.2 0.2,-2 0.7,-2.7 0.5,-0.6 1.2,-1 2.1,-1 0.9,0 1.6,0.3 2.1,1 h 0.1 C 413,392 413,391.6 413,391.3 v -2.6 h 1.5 v 9.9 h -1.2 l -0.3,-0.9 h -0.1 c -0.5,0.9 -1.2,1.2 -2.1,1.2 z m 0.4,-1.2 c 0.6,0 1.1,-0.2 1.3,-0.5 0.2,-0.3 0.4,-0.9 0.4,-1.7 v -0.2 c 0,-0.9 -0.1,-1.5 -0.4,-1.9 -0.3,-0.4 -0.7,-0.6 -1.4,-0.6 -0.5,0 -0.9,0.2 -1.2,0.6 -0.3,0.4 -0.4,1 -0.4,1.8 0,0.8 0.1,1.4 0.4,1.8 0.3,0.5 0.8,0.7 1.3,0.7 z"
   class="st0" />
	</g>
	<g
   id="g58">
		<path
   style="fill:#808285"
   id="path34"
   d="m 317.7,408.8 c 0,1.5 -0.4,2.7 -1.1,3.5 -0.7,0.8 -1.8,1.3 -3.2,1.3 -1.4,0 -2.5,-0.4 -3.2,-1.2 -0.8,-0.8 -1.1,-2 -1.1,-3.5 0,-1.5 0.4,-2.7 1.1,-3.5 0.8,-0.8 1.8,-1.2 3.2,-1.2 1.4,0 2.4,0.4 3.2,1.2 0.7,0.7 1.1,1.9 1.1,3.4 z m -7.1,0 c 0,1.1 0.2,2 0.7,2.6 0.5,0.6 1.1,0.9 2.1,0.9 0.9,0 1.6,-0.3 2,-0.9 0.5,-0.6 0.7,-1.5 0.7,-2.6 0,-1.1 -0.2,-2 -0.7,-2.6 -0.5,-0.6 -1.1,-0.9 -2,-0.9 -0.9,0 -1.6,0.3 -2.1,0.9 -0.5,0.6 -0.7,1.4 -0.7,2.6 z"
   class="st0" />
		<path
   style="fill:#808285"
   id="path36"
   d="m 323.1,406.3 c 0.3,0 0.5,0 0.7,0.1 l -0.1,1.4 c -0.2,-0.1 -0.4,-0.1 -0.7,-0.1 -0.6,0 -1.1,0.2 -1.5,0.6 -0.4,0.4 -0.6,0.9 -0.6,1.5 v 3.7 h -1.5 v -7 h 1.2 l 0.2,1.2 h 0.1 c 0.2,-0.4 0.5,-0.8 0.9,-1 0.4,-0.3 0.8,-0.4 1.3,-0.4 z"
   class="st0" />
		<path
   style="fill:#808285"
   id="path38"
   d="m 331,406.4 v 0.8 l -1.2,0.2 c 0.1,0.1 0.2,0.3 0.3,0.5 0.1,0.2 0.1,0.4 0.1,0.7 0,0.7 -0.2,1.3 -0.7,1.7 -0.5,0.4 -1.2,0.6 -2.1,0.6 -0.2,0 -0.4,0 -0.6,-0.1 -0.3,0.2 -0.5,0.4 -0.5,0.7 0,0.2 0.1,0.3 0.2,0.4 0.1,0.1 0.4,0.1 0.8,0.1 h 1.2 c 0.8,0 1.4,0.2 1.8,0.5 0.4,0.3 0.6,0.8 0.6,1.4 0,0.8 -0.3,1.4 -1,1.8 -0.7,0.4 -1.6,0.6 -2.8,0.6 -1,0 -1.7,-0.2 -2.2,-0.5 -0.5,-0.3 -0.8,-0.8 -0.8,-1.4 0,-0.4 0.1,-0.8 0.4,-1.1 0.3,-0.3 0.7,-0.5 1.1,-0.6 -0.2,-0.1 -0.4,-0.2 -0.5,-0.4 -0.1,-0.2 -0.2,-0.4 -0.2,-0.6 0,-0.3 0.1,-0.5 0.2,-0.7 0.1,-0.2 0.4,-0.4 0.7,-0.5 -0.4,-0.2 -0.7,-0.4 -0.9,-0.8 -0.2,-0.4 -0.3,-0.8 -0.3,-1.2 0,-0.8 0.2,-1.4 0.7,-1.8 0.5,-0.4 1.2,-0.6 2.1,-0.6 0.2,0 0.4,0 0.6,0 0.2,0 0.4,0.1 0.5,0.1 h 2.5 z m -5.5,8.1 c 0,0.3 0.1,0.6 0.4,0.7 0.3,0.2 0.7,0.3 1.2,0.3 0.8,0 1.4,-0.1 1.8,-0.3 0.4,-0.2 0.6,-0.5 0.6,-0.9 0,-0.3 -0.1,-0.5 -0.3,-0.7 -0.2,-0.2 -0.6,-0.2 -1.2,-0.2 h -1.1 c -0.4,0 -0.8,0.1 -1,0.3 -0.2,0.2 -0.4,0.5 -0.4,0.8 z m 0.7,-5.8 c 0,0.4 0.1,0.8 0.3,1 0.2,0.2 0.6,0.4 1,0.4 0.9,0 1.3,-0.5 1.3,-1.4 0,-0.5 -0.1,-0.8 -0.3,-1.1 -0.2,-0.2 -0.5,-0.4 -1,-0.4 -0.4,0 -0.8,0.1 -1,0.4 -0.2,0.2 -0.3,0.6 -0.3,1.1 z"
   class="st0" />
		<path
   style="fill:#808285"
   id="path40"
   d="m 336.7,413.4 -0.3,-1 h -0.1 c -0.3,0.4 -0.7,0.7 -1,0.9 -0.3,0.2 -0.8,0.2 -1.3,0.2 -0.7,0 -1.2,-0.2 -1.6,-0.6 -0.4,-0.4 -0.6,-0.9 -0.6,-1.6 0,-0.7 0.3,-1.3 0.8,-1.6 0.5,-0.4 1.4,-0.6 2.5,-0.6 h 1.2 v -0.4 c 0,-0.4 -0.1,-0.8 -0.3,-1 -0.2,-0.2 -0.5,-0.3 -1,-0.3 -0.4,0 -0.7,0.1 -1,0.2 -0.3,0.1 -0.6,0.2 -1,0.4 l -0.5,-1.1 c 0.4,-0.2 0.8,-0.4 1.3,-0.5 0.5,-0.1 0.9,-0.2 1.3,-0.2 0.9,0 1.6,0.2 2,0.6 0.4,0.4 0.7,1 0.7,1.8 v 4.7 h -1.1 z m -2.2,-1 c 0.5,0 1,-0.2 1.3,-0.5 0.3,-0.3 0.5,-0.7 0.5,-1.3 V 410 h -0.9 c -0.7,0 -1.2,0.1 -1.5,0.4 -0.3,0.2 -0.5,0.5 -0.5,1 0,0.3 0.1,0.6 0.3,0.7 0.2,0.2 0.4,0.3 0.8,0.3 z"
   class="st0" />
		<path
   style="fill:#808285"
   id="path42"
   d="m 346.1,413.4 h -1.5 v -4.3 c 0,-0.5 -0.1,-0.9 -0.3,-1.2 -0.2,-0.3 -0.6,-0.4 -1,-0.4 -0.6,0 -1.1,0.2 -1.4,0.6 -0.3,0.4 -0.4,1 -0.4,1.9 v 3.5 H 340 v -7 h 1.2 l 0.2,0.9 h 0.1 c 0.2,-0.3 0.5,-0.6 0.9,-0.8 0.4,-0.2 0.8,-0.3 1.3,-0.3 1.7,0 2.5,0.9 2.5,2.6 v 4.5 z"
   class="st0" />
		<path
   style="fill:#808285"
   id="path44"
   d="m 348,404.5 c 0,-0.3 0.1,-0.5 0.2,-0.6 0.1,-0.1 0.4,-0.2 0.6,-0.2 0.3,0 0.5,0.1 0.6,0.2 0.1,0.1 0.2,0.3 0.2,0.6 0,0.3 -0.1,0.5 -0.2,0.6 -0.1,0.1 -0.4,0.2 -0.6,0.2 -0.3,0 -0.5,-0.1 -0.6,-0.2 -0.1,-0.1 -0.2,-0.3 -0.2,-0.6 z m 1.6,8.9 h -1.5 v -7 h 1.5 z"
   class="st0" />
		<path
   style="fill:#808285"
   id="path46"
   d="m 356.5,411.4 c 0,0.7 -0.2,1.2 -0.7,1.6 -0.5,0.4 -1.2,0.5 -2.1,0.5 -0.9,0 -1.7,-0.1 -2.3,-0.4 v -1.3 c 0.8,0.4 1.6,0.6 2.3,0.6 0.9,0 1.4,-0.3 1.4,-0.8 0,-0.2 -0.1,-0.3 -0.2,-0.4 -0.1,-0.1 -0.3,-0.2 -0.5,-0.4 -0.2,-0.1 -0.6,-0.3 -1,-0.4 -0.8,-0.3 -1.4,-0.6 -1.6,-0.9 -0.3,-0.3 -0.4,-0.7 -0.4,-1.2 0,-0.6 0.2,-1.1 0.7,-1.4 0.5,-0.3 1.1,-0.5 2,-0.5 0.8,0 1.6,0.2 2.3,0.5 l -0.5,1.1 c -0.8,-0.3 -1.4,-0.5 -1.9,-0.5 -0.8,0 -1.2,0.2 -1.2,0.7 0,0.2 0.1,0.4 0.3,0.6 0.2,0.2 0.7,0.4 1.3,0.6 0.6,0.2 1,0.4 1.3,0.6 0.3,0.2 0.5,0.4 0.6,0.6 0.1,0.2 0.2,0.5 0.2,0.8 z"
   class="st0" />
		<path
   style="fill:#808285"
   id="path48"
   d="m 362.5,413.4 -0.3,-1 h -0.1 c -0.3,0.4 -0.7,0.7 -1,0.9 -0.3,0.2 -0.8,0.2 -1.3,0.2 -0.7,0 -1.2,-0.2 -1.6,-0.6 -0.4,-0.4 -0.6,-0.9 -0.6,-1.6 0,-0.7 0.3,-1.3 0.8,-1.6 0.5,-0.4 1.4,-0.6 2.5,-0.6 h 1.2 v -0.4 c 0,-0.4 -0.1,-0.8 -0.3,-1 -0.2,-0.2 -0.5,-0.3 -1,-0.3 -0.4,0 -0.7,0.1 -1,0.2 -0.3,0.1 -0.6,0.2 -1,0.4 l -0.5,-1.1 c 0.4,-0.2 0.8,-0.4 1.3,-0.5 0.5,-0.1 0.9,-0.2 1.3,-0.2 0.9,0 1.6,0.2 2,0.6 0.4,0.4 0.7,1 0.7,1.8 v 4.7 h -1.1 z m -2.2,-1 c 0.5,0 1,-0.2 1.3,-0.5 0.3,-0.3 0.5,-0.7 0.5,-1.3 V 410 h -0.9 c -0.7,0 -1.2,0.1 -1.5,0.4 -0.3,0.2 -0.5,0.5 -0.5,1 0,0.3 0.1,0.6 0.3,0.7 0.1,0.2 0.4,0.3 0.8,0.3 z"
   class="st0" />
		<path
   style="fill:#808285"
   id="path50"
   d="m 368.2,412.3 c 0.4,0 0.7,-0.1 1.1,-0.2 v 1.1 c -0.2,0.1 -0.4,0.1 -0.6,0.2 -0.3,0 -0.5,0.1 -0.8,0.1 -1.4,0 -2.1,-0.7 -2.1,-2.2 v -3.8 h -1 v -0.7 l 1,-0.5 0.5,-1.5 h 0.9 v 1.6 h 2 v 1.1 h -2 v 3.8 c 0,0.4 0.1,0.6 0.3,0.8 0.2,0.2 0.4,0.2 0.7,0.2 z"
   class="st0" />
		<path
   style="fill:#808285"
   id="path52"
   d="m 370.6,404.5 c 0,-0.3 0.1,-0.5 0.2,-0.6 0.1,-0.1 0.4,-0.2 0.6,-0.2 0.3,0 0.5,0.1 0.6,0.2 0.1,0.1 0.2,0.3 0.2,0.6 0,0.3 -0.1,0.5 -0.2,0.6 -0.1,0.1 -0.4,0.2 -0.6,0.2 -0.3,0 -0.5,-0.1 -0.6,-0.2 -0.1,-0.1 -0.2,-0.3 -0.2,-0.6 z m 1.6,8.9 h -1.5 v -7 h 1.5 z"
   class="st0" />
		<path
   style="fill:#808285"
   id="path54"
   d="m 380.6,409.9 c 0,1.1 -0.3,2 -0.9,2.7 -0.6,0.7 -1.4,1 -2.5,1 -0.7,0 -1.2,-0.1 -1.7,-0.4 -0.5,-0.3 -0.9,-0.7 -1.2,-1.3 -0.3,-0.6 -0.4,-1.2 -0.4,-1.9 0,-1.1 0.3,-2 0.9,-2.7 0.6,-0.6 1.4,-1 2.5,-1 1,0 1.8,0.3 2.4,1 0.6,0.6 0.9,1.5 0.9,2.6 z m -5.1,0 c 0,1.6 0.6,2.4 1.8,2.4 1.2,0 1.8,-0.8 1.8,-2.4 0,-1.6 -0.6,-2.4 -1.8,-2.4 -0.6,0 -1.1,0.2 -1.4,0.6 -0.3,0.4 -0.4,1 -0.4,1.8 z"
   class="st0" />
		<path
   style="fill:#808285"
   id="path56"
   d="M 388.5,413.4 H 387 v -4.3 c 0,-0.5 -0.1,-0.9 -0.3,-1.2 -0.2,-0.3 -0.6,-0.4 -1,-0.4 -0.6,0 -1.1,0.2 -1.4,0.6 -0.3,0.4 -0.4,1 -0.4,1.9 v 3.5 h -1.5 v -7 h 1.2 l 0.2,0.9 h 0.1 c 0.2,-0.3 0.5,-0.6 0.9,-0.8 0.4,-0.2 0.8,-0.3 1.3,-0.3 1.7,0 2.5,0.9 2.5,2.6 v 4.5 z"
   class="st0" />
	</g>
	<path
   style="fill:#a6ce39"
   id="path60"
   d="m 266.1,399 h 3.1 v -21.7 h -3.1 z m 14.6,-0.1 c 1.9,0 3.2,-0.1 3.9,-0.2 0.7,-0.1 1.4,-0.3 2.3,-0.6 1.4,-0.5 2.6,-1.3 3.7,-2.3 1,-1 1.8,-2.2 2.4,-3.5 0.6,-1.3 0.8,-2.7 0.8,-4.2 0,-2 -0.5,-3.9 -1.5,-5.6 -1,-1.7 -2.4,-3 -4.1,-3.9 -1.7,-0.9 -4.1,-1.3 -7,-1.3 h -7.3 V 399 h 6.8 z m 3.3,-18.7 c 0.7,0.1 1.4,0.3 2.1,0.7 0.8,0.4 1.4,0.8 2,1.4 1.6,1.5 2.4,3.4 2.4,5.7 0,2.4 -0.8,4.3 -2.3,5.9 -0.5,0.5 -1,0.9 -1.6,1.2 -0.6,0.3 -1.3,0.6 -2.2,0.8 -0.9,0.2 -2.1,0.3 -3.6,0.3 h -4 V 380 h 3.9 c 1.6,0 2.7,0 3.3,0.2 z m -18.6,-7.7 c 0,-1.2 0.9,-2.1 2.1,-2.1 1.2,0 2.1,0.9 2.1,2.1 0,1.2 -0.9,2.1 -2.1,2.1 -1.2,0 -2.1,-1 -2.1,-2.1 z"
   class="st1" />
	<path
   style="fill:#a7a9ac"
   id="path62"
   d="m 200.7,380.1 c -2.2,2.1 -3.3,4.8 -3.3,8.1 0,3.2 1.1,5.8 3.3,7.9 2.2,2.1 4.9,3.2 8.2,3.2 3.4,0 6.3,-1.1 8.5,-3.2 2.3,-2.1 3.4,-4.8 3.4,-8 0,-3.2 -1.1,-5.9 -3.4,-8 -2.2,-2.1 -5,-3.2 -8.4,-3.2 -3.4,0 -6.1,1.1 -8.3,3.2 z m 14.4,2.1 c 1.6,1.6 2.4,3.5 2.4,5.8 0,2.4 -0.8,4.3 -2.4,5.9 -1.6,1.6 -3.6,2.4 -6.1,2.4 -2.4,0 -4.4,-0.8 -6,-2.3 -1.6,-1.6 -2.4,-3.5 -2.4,-5.9 0,-2.4 0.8,-4.4 2.4,-6 1.6,-1.6 3.6,-2.3 6.1,-2.3 2.4,0.1 4.4,0.9 6,2.4 z m 12.6,16.8 v -9.5 h 0.8 c 1,0 1.7,0.1 2.2,0.3 0.4,0.2 0.9,0.6 1.4,1.1 0.5,0.5 1.1,1.2 1.8,2.1 l 1,1.7 1,1.6 0.6,0.9 c 0.1,0.1 0.2,0.2 0.2,0.3 l 0.9,1.4 h 3.7 l -1.2,-1.6 c -0.5,-0.6 -1.1,-1.6 -1.8,-2.8 -1.2,-2 -2.1,-3.3 -2.8,-4.1 -0.7,-0.8 -1.3,-1.4 -2,-1.9 1.2,-0.5 2.1,-1.1 2.7,-2.1 0.6,-0.9 0.9,-2 0.9,-3.3 0,-1.9 -0.6,-3.3 -1.9,-4.4 -1.3,-1.1 -3,-1.6 -5.2,-1.6 h -5.4 V 399 Z m 4.2,-18.8 c 0.7,0.2 1.2,0.6 1.5,1.2 0.4,0.6 0.5,1.2 0.5,1.9 0,0.7 -0.2,1.3 -0.5,1.9 -0.3,0.5 -0.8,1 -1.4,1.2 -0.6,0.3 -1.7,0.4 -3.2,0.4 h -1.2 v -6.9 h 0.9 c 1.6,0 2.7,0.1 3.4,0.3 z m 21.7,16.1 c -2.5,0 -4.6,-0.8 -6.2,-2.3 -1.6,-1.5 -2.4,-3.5 -2.4,-5.9 0,-2.4 0.8,-4.3 2.5,-5.9 1.6,-1.6 3.7,-2.4 6.2,-2.4 2.4,0 4.9,0.7 7.5,2.2 v -3.3 c -2.8,-1.2 -5.3,-1.8 -7.6,-1.8 -3.3,0 -6.1,1.1 -8.3,3.2 -2.3,2.2 -3.4,4.8 -3.4,8 0,2 0.5,3.8 1.5,5.6 1,1.7 2.3,3.1 4,4 1.7,1 3.7,1.5 6.2,1.5 3,0 5.6,-0.6 7.9,-1.9 v -3.4 c -2.7,1.6 -5.3,2.4 -7.9,2.4 z"
   class="st2" />
	<line
   style="fill:none;stroke:#6d6e71;stroke-width:0.3066"
   id="line64"
   y2="427.29999"
   x2="301"
   y1="365"
   x1="301"
   class="st3" />
	<g
   id="g102">
		<path
   style="fill:#808285"
   id="path66"
   d="m 200.6,407.8 c -0.7,0 -1.3,0.2 -1.7,0.7 -0.4,0.5 -0.6,1.1 -0.6,1.9 0,0.8 0.2,1.5 0.6,2 0.4,0.5 1,0.7 1.7,0.7 0.4,0 1,-0.1 1.5,-0.2 v 0.7 c -0.4,0.2 -1,0.3 -1.6,0.3 -0.9,0 -1.7,-0.3 -2.2,-0.9 -0.5,-0.6 -0.8,-1.4 -0.8,-2.5 0,-0.7 0.1,-1.2 0.4,-1.7 0.2,-0.5 0.6,-0.9 1.1,-1.2 0.5,-0.3 1,-0.4 1.7,-0.4 0.7,0 1.3,0.1 1.8,0.4 l -0.3,0.6 c -0.6,-0.3 -1.1,-0.4 -1.6,-0.4 z"
   class="st0" />
		<path
   style="fill:#808285"
   id="path68"
   d="m 207.5,411.2 c 0,0.8 -0.2,1.4 -0.6,1.8 -0.4,0.4 -0.9,0.7 -1.6,0.7 -0.4,0 -0.8,-0.1 -1.1,-0.3 -0.3,-0.2 -0.6,-0.5 -0.8,-0.9 -0.2,-0.4 -0.3,-0.8 -0.3,-1.3 0,-0.8 0.2,-1.4 0.6,-1.8 0.4,-0.4 0.9,-0.7 1.6,-0.7 0.7,0 1.2,0.2 1.6,0.7 0.4,0.5 0.6,1.1 0.6,1.8 z m -3.6,0 c 0,0.6 0.1,1.1 0.4,1.4 0.2,0.3 0.6,0.5 1.1,0.5 0.5,0 0.8,-0.2 1.1,-0.5 0.3,-0.3 0.4,-0.8 0.4,-1.4 0,-0.6 -0.1,-1.1 -0.4,-1.4 -0.3,-0.3 -0.6,-0.5 -1.1,-0.5 -0.5,0 -0.8,0.2 -1.1,0.5 -0.3,0.3 -0.4,0.8 -0.4,1.4 z"
   class="st0" />
		<path
   style="fill:#808285"
   id="path70"
   d="m 212,413.6 v -3.1 c 0,-0.4 -0.1,-0.7 -0.3,-0.9 -0.2,-0.2 -0.5,-0.3 -0.8,-0.3 -0.5,0 -0.9,0.1 -1.1,0.4 -0.2,0.3 -0.4,0.7 -0.4,1.4 v 2.5 h -0.7 v -4.8 h 0.6 l 0.1,0.7 v 0 c 0.1,-0.2 0.4,-0.4 0.6,-0.6 0.2,-0.2 0.6,-0.2 0.9,-0.2 0.6,0 1,0.1 1.3,0.4 0.3,0.3 0.4,0.7 0.4,1.3 v 3.1 H 212 Z"
   class="st0" />
		<path
   style="fill:#808285"
   id="path72"
   d="m 217.5,413.6 v -3.1 c 0,-0.4 -0.1,-0.7 -0.3,-0.9 -0.2,-0.2 -0.5,-0.3 -0.8,-0.3 -0.5,0 -0.9,0.1 -1.1,0.4 -0.2,0.3 -0.4,0.7 -0.4,1.4 v 2.5 h -0.7 v -4.8 h 0.6 l 0.1,0.7 v 0 c 0.1,-0.2 0.4,-0.4 0.6,-0.6 0.2,-0.2 0.6,-0.2 0.9,-0.2 0.6,0 1,0.1 1.3,0.4 0.3,0.3 0.4,0.7 0.4,1.3 v 3.1 h -0.6 z"
   class="st0" />
		<path
   style="fill:#808285"
   id="path74"
   d="m 221.7,413.7 c -0.7,0 -1.3,-0.2 -1.7,-0.7 -0.4,-0.4 -0.6,-1 -0.6,-1.8 0,-0.8 0.2,-1.4 0.6,-1.9 0.4,-0.5 0.9,-0.7 1.5,-0.7 0.6,0 1.1,0.2 1.4,0.6 0.3,0.4 0.5,0.9 0.5,1.6 v 0.5 h -3.3 c 0,0.6 0.2,1 0.4,1.3 0.3,0.3 0.7,0.4 1.1,0.4 0.5,0 1,-0.1 1.5,-0.3 v 0.7 c -0.3,0.1 -0.5,0.2 -0.7,0.2 -0.1,0.1 -0.4,0.1 -0.7,0.1 z m -0.2,-4.4 c -0.4,0 -0.7,0.1 -0.9,0.4 -0.2,0.3 -0.4,0.6 -0.4,1 h 2.5 c 0,-0.5 -0.1,-0.8 -0.3,-1.1 -0.2,-0.1 -0.5,-0.3 -0.9,-0.3 z"
   class="st0" />
		<path
   style="fill:#808285"
   id="path76"
   d="m 226.5,413.7 c -0.7,0 -1.2,-0.2 -1.6,-0.6 -0.4,-0.4 -0.6,-1 -0.6,-1.8 0,-0.8 0.2,-1.4 0.6,-1.9 0.4,-0.4 0.9,-0.7 1.7,-0.7 0.2,0 0.5,0 0.7,0.1 0.2,0 0.4,0.1 0.5,0.2 l -0.2,0.6 c -0.2,-0.1 -0.3,-0.1 -0.5,-0.2 -0.2,0 -0.4,-0.1 -0.5,-0.1 -1,0 -1.5,0.6 -1.5,1.9 0,0.6 0.1,1 0.4,1.4 0.2,0.3 0.6,0.5 1.1,0.5 0.4,0 0.8,-0.1 1.2,-0.3 v 0.6 c -0.4,0.2 -0.8,0.3 -1.3,0.3 z"
   class="st0" />
		<path
   style="fill:#808285"
   id="path78"
   d="m 230.4,413.1 c 0.1,0 0.3,0 0.4,0 0.1,0 0.2,0 0.3,-0.1 v 0.6 c -0.1,0 -0.2,0.1 -0.3,0.1 -0.2,0 -0.3,0 -0.4,0 -0.9,0 -1.4,-0.5 -1.4,-1.5 v -2.9 h -0.7 V 409 l 0.7,-0.3 0.3,-1 h 0.4 v 1.1 h 1.4 v 0.6 h -1.4 v 2.8 c 0,0.3 0.1,0.5 0.2,0.7 0.1,0.1 0.2,0.2 0.5,0.2 z"
   class="st0" />
		<path
   style="fill:#808285"
   id="path80"
   d="m 231.9,407.5 c 0,-0.2 0,-0.3 0.1,-0.4 0.1,-0.1 0.2,-0.1 0.3,-0.1 0.1,0 0.2,0 0.3,0.1 0.1,0.1 0.1,0.2 0.1,0.4 0,0.2 0,0.3 -0.1,0.4 -0.1,0.1 -0.2,0.1 -0.3,0.1 -0.1,0 -0.2,0 -0.3,-0.1 -0.1,-0.1 -0.1,-0.2 -0.1,-0.4 z m 0.8,6.1 H 232 v -4.8 h 0.7 z"
   class="st0" />
		<path
   style="fill:#808285"
   id="path82"
   d="m 237.4,413.6 v -3.1 c 0,-0.4 -0.1,-0.7 -0.3,-0.9 -0.2,-0.2 -0.5,-0.3 -0.8,-0.3 -0.5,0 -0.9,0.1 -1.1,0.4 -0.2,0.3 -0.4,0.7 -0.4,1.4 v 2.5 h -0.7 v -4.8 h 0.6 l 0.1,0.7 v 0 c 0.1,-0.2 0.4,-0.4 0.6,-0.6 0.2,-0.2 0.6,-0.2 0.9,-0.2 0.6,0 1,0.1 1.3,0.4 0.3,0.3 0.4,0.7 0.4,1.3 v 3.1 h -0.6 z"
   class="st0" />
		<path
   style="fill:#808285"
   id="path84"
   d="m 243.5,408.8 v 0.5 l -0.9,0.1 c 0.1,0.1 0.2,0.2 0.2,0.4 0,0.2 0.1,0.4 0.1,0.6 0,0.5 -0.2,0.8 -0.5,1.1 -0.3,0.3 -0.8,0.4 -1.3,0.4 -0.1,0 -0.3,0 -0.4,0 -0.3,0.2 -0.5,0.4 -0.5,0.6 0,0.1 0.1,0.2 0.2,0.3 0.1,0.1 0.3,0.1 0.6,0.1 h 0.9 c 0.5,0 0.9,0.1 1.2,0.3 0.3,0.2 0.4,0.5 0.4,1 0,0.5 -0.2,0.9 -0.6,1.2 -0.4,0.3 -1.1,0.4 -1.9,0.4 -0.6,0 -1.1,-0.1 -1.5,-0.4 -0.3,-0.2 -0.5,-0.6 -0.5,-1 0,-0.3 0.1,-0.5 0.3,-0.8 0.2,-0.2 0.5,-0.4 0.8,-0.4 -0.1,-0.1 -0.2,-0.1 -0.3,-0.3 -0.1,-0.2 -0.1,-0.3 -0.1,-0.4 0,-0.2 0,-0.3 0.1,-0.5 0.1,-0.1 0.2,-0.3 0.4,-0.4 -0.2,-0.1 -0.5,-0.3 -0.6,-0.5 -0.2,-0.2 -0.2,-0.5 -0.2,-0.8 0,-0.5 0.2,-0.9 0.5,-1.2 0.3,-0.3 0.8,-0.4 1.3,-0.4 0.3,0 0.5,0 0.7,0.1 z m -3.8,5.7 c 0,0.3 0.1,0.5 0.3,0.6 0.2,0.1 0.5,0.2 0.9,0.2 0.6,0 1.1,-0.1 1.4,-0.3 0.3,-0.2 0.4,-0.4 0.4,-0.7 0,-0.3 -0.1,-0.4 -0.2,-0.5 -0.2,-0.1 -0.5,-0.2 -0.9,-0.2 h -0.9 c -0.3,0 -0.6,0.1 -0.8,0.2 -0.1,0.1 -0.2,0.4 -0.2,0.7 z m 0.4,-4.1 c 0,0.3 0.1,0.6 0.3,0.8 0.2,0.2 0.5,0.3 0.8,0.3 0.7,0 1.1,-0.3 1.1,-1 0,-0.7 -0.4,-1.1 -1.1,-1.1 -0.3,0 -0.6,0.1 -0.8,0.3 -0.2,0 -0.3,0.3 -0.3,0.7 z"
   class="st0" />
		<path
   style="fill:#808285"
   id="path86"
   d="m 247.5,411 v 2.7 h -0.7 v -6.4 h 1.8 c 0.8,0 1.4,0.2 1.7,0.5 0.4,0.3 0.6,0.8 0.6,1.4 0,0.9 -0.4,1.4 -1.3,1.7 l 1.7,2.9 h -0.9 l -1.6,-2.7 h -1.3 z m 0,-0.7 h 1 c 0.5,0 0.9,-0.1 1.2,-0.3 0.2,-0.2 0.4,-0.5 0.4,-0.9 0,-0.4 -0.1,-0.7 -0.4,-0.9 -0.3,-0.2 -0.7,-0.3 -1.2,-0.3 h -1 z"
   class="st0" />
		<path
   style="fill:#808285"
   id="path88"
   d="m 254.2,413.7 c -0.7,0 -1.3,-0.2 -1.7,-0.7 -0.4,-0.4 -0.6,-1 -0.6,-1.8 0,-0.8 0.2,-1.4 0.6,-1.9 0.4,-0.5 0.9,-0.7 1.5,-0.7 0.6,0 1.1,0.2 1.4,0.6 0.3,0.4 0.5,0.9 0.5,1.6 v 0.5 h -3.3 c 0,0.6 0.2,1 0.4,1.3 0.3,0.3 0.7,0.4 1.1,0.4 0.5,0 1,-0.1 1.5,-0.3 v 0.7 c -0.3,0.1 -0.5,0.2 -0.7,0.2 -0.1,0.1 -0.4,0.1 -0.7,0.1 z m -0.2,-4.4 c -0.4,0 -0.7,0.1 -0.9,0.4 -0.2,0.3 -0.4,0.6 -0.4,1 h 2.5 c 0,-0.5 -0.1,-0.8 -0.3,-1.1 -0.2,-0.1 -0.5,-0.3 -0.9,-0.3 z"
   class="st0" />
		<path
   style="fill:#808285"
   id="path90"
   d="m 260.3,412.3 c 0,0.4 -0.2,0.8 -0.5,1 -0.3,0.2 -0.8,0.4 -1.4,0.4 -0.6,0 -1.1,-0.1 -1.5,-0.3 v -0.7 c 0.2,0.1 0.5,0.2 0.7,0.3 0.2,0.1 0.5,0.1 0.8,0.1 0.4,0 0.7,-0.1 0.9,-0.2 0.2,-0.1 0.3,-0.3 0.3,-0.6 0,-0.2 -0.1,-0.3 -0.2,-0.5 -0.2,-0.1 -0.5,-0.3 -1,-0.5 -0.4,-0.2 -0.8,-0.3 -1,-0.4 -0.2,-0.1 -0.3,-0.3 -0.4,-0.4 -0.1,-0.1 -0.1,-0.3 -0.1,-0.6 0,-0.4 0.2,-0.7 0.5,-0.9 0.3,-0.2 0.8,-0.3 1.3,-0.3 0.5,0 1,0.1 1.5,0.3 l -0.3,0.6 c -0.5,-0.2 -0.9,-0.3 -1.3,-0.3 -0.3,0 -0.6,0.1 -0.8,0.2 -0.2,0.1 -0.3,0.3 -0.3,0.4 0,0.1 0,0.2 0.1,0.3 0.1,0.1 0.2,0.2 0.3,0.3 0.1,0.1 0.4,0.2 0.8,0.4 0.6,0.2 1,0.4 1.2,0.6 0.3,0.2 0.4,0.5 0.4,0.8 z"
   class="st0" />
		<path
   style="fill:#808285"
   id="path92"
   d="m 263.4,413.7 c -0.7,0 -1.3,-0.2 -1.7,-0.7 -0.4,-0.4 -0.6,-1 -0.6,-1.8 0,-0.8 0.2,-1.4 0.6,-1.9 0.4,-0.5 0.9,-0.7 1.5,-0.7 0.6,0 1.1,0.2 1.4,0.6 0.3,0.4 0.5,0.9 0.5,1.6 v 0.5 h -3.3 c 0,0.6 0.2,1 0.4,1.3 0.3,0.3 0.7,0.4 1.1,0.4 0.5,0 1,-0.1 1.5,-0.3 v 0.7 c -0.3,0.1 -0.5,0.2 -0.7,0.2 -0.1,0.1 -0.4,0.1 -0.7,0.1 z m -0.2,-4.4 c -0.4,0 -0.7,0.1 -0.9,0.4 -0.2,0.3 -0.4,0.6 -0.4,1 h 2.5 c 0,-0.5 -0.1,-0.8 -0.3,-1.1 -0.2,-0.1 -0.5,-0.3 -0.9,-0.3 z"
   class="st0" />
		<path
   style="fill:#808285"
   id="path94"
   d="m 269.3,413.6 -0.1,-0.7 v 0 c -0.2,0.3 -0.5,0.5 -0.7,0.6 -0.2,0.1 -0.5,0.2 -0.9,0.2 -0.5,0 -0.9,-0.1 -1.1,-0.4 -0.3,-0.2 -0.4,-0.6 -0.4,-1.1 0,-1 0.8,-1.5 2.3,-1.5 h 0.8 v -0.3 c 0,-0.4 -0.1,-0.7 -0.2,-0.8 -0.2,-0.2 -0.4,-0.3 -0.8,-0.3 -0.4,0 -0.9,0.1 -1.4,0.4 l -0.2,-0.6 c 0.2,-0.1 0.5,-0.2 0.8,-0.3 0.3,-0.1 0.6,-0.1 0.9,-0.1 0.6,0 1,0.1 1.3,0.4 0.3,0.3 0.4,0.7 0.4,1.2 v 3.3 z m -1.6,-0.5 c 0.5,0 0.8,-0.1 1.1,-0.4 0.3,-0.2 0.4,-0.6 0.4,-1 v -0.4 h -0.7 c -0.6,0 -1,0.1 -1.3,0.3 -0.3,0.2 -0.4,0.4 -0.4,0.7 0,0.3 0.1,0.5 0.2,0.6 0.2,0.2 0.4,0.2 0.7,0.2 z"
   class="st0" />
		<path
   style="fill:#808285"
   id="path96"
   d="m 273.5,408.7 c 0.2,0 0.4,0 0.6,0.1 l -0.1,0.7 c -0.2,0 -0.4,-0.1 -0.5,-0.1 -0.4,0 -0.7,0.2 -1,0.5 -0.3,0.3 -0.4,0.7 -0.4,1.2 v 2.6 h -0.7 v -4.8 h 0.6 l 0.1,0.9 v 0 c 0.2,-0.3 0.4,-0.6 0.6,-0.7 0.2,-0.3 0.5,-0.4 0.8,-0.4 z"
   class="st0" />
		<path
   style="fill:#808285"
   id="path98"
   d="m 276.8,413.7 c -0.7,0 -1.2,-0.2 -1.6,-0.6 -0.4,-0.4 -0.6,-1 -0.6,-1.8 0,-0.8 0.2,-1.4 0.6,-1.9 0.4,-0.4 0.9,-0.7 1.7,-0.7 0.2,0 0.5,0 0.7,0.1 0.2,0 0.4,0.1 0.5,0.2 l -0.2,0.6 c -0.2,-0.1 -0.3,-0.1 -0.5,-0.2 -0.2,0 -0.4,-0.1 -0.5,-0.1 -1,0 -1.5,0.6 -1.5,1.9 0,0.6 0.1,1 0.4,1.4 0.2,0.3 0.6,0.5 1.1,0.5 0.4,0 0.8,-0.1 1.2,-0.3 v 0.6 c -0.4,0.2 -0.8,0.3 -1.3,0.3 z"
   class="st0" />
		<path
   style="fill:#808285"
   id="path100"
   d="m 282.4,413.6 v -3.1 c 0,-0.4 -0.1,-0.7 -0.3,-0.9 -0.2,-0.2 -0.5,-0.3 -0.8,-0.3 -0.5,0 -0.9,0.1 -1.1,0.4 -0.2,0.3 -0.4,0.7 -0.4,1.4 v 2.5 h -0.7 v -6.8 h 0.7 v 2.1 c 0,0.2 0,0.5 0,0.6 v 0 c 0.1,-0.2 0.3,-0.4 0.6,-0.5 0.3,-0.1 0.6,-0.2 0.9,-0.2 0.6,0 1,0.1 1.3,0.4 0.3,0.3 0.4,0.7 0.4,1.3 v 3.1 z"
   class="st0" />
	</g>
	<g
   id="g132">
		<path
   style="fill:#808285"
   id="path104"
   d="m 200.7,424.2 -0.1,-0.7 v 0 c -0.2,0.3 -0.5,0.5 -0.7,0.6 -0.2,0.1 -0.5,0.2 -0.9,0.2 -0.5,0 -0.9,-0.1 -1.1,-0.4 -0.3,-0.2 -0.4,-0.6 -0.4,-1.1 0,-1 0.8,-1.5 2.3,-1.5 h 0.8 V 421 c 0,-0.4 -0.1,-0.7 -0.2,-0.8 -0.2,-0.2 -0.4,-0.3 -0.8,-0.3 -0.4,0 -0.9,0.1 -1.4,0.4 l -0.2,-0.6 c 0.2,-0.1 0.5,-0.2 0.8,-0.3 0.3,-0.1 0.6,-0.1 0.9,-0.1 0.6,0 1,0.1 1.3,0.4 0.3,0.3 0.4,0.7 0.4,1.2 v 3.3 z m -1.6,-0.6 c 0.5,0 0.8,-0.1 1.1,-0.4 0.3,-0.2 0.4,-0.6 0.4,-1 v -0.4 h -0.7 c -0.6,0 -1,0.1 -1.3,0.3 -0.3,0.2 -0.4,0.4 -0.4,0.7 0,0.3 0.1,0.5 0.2,0.6 0.2,0.2 0.4,0.2 0.7,0.2 z"
   class="st0" />
		<path
   style="fill:#808285"
   id="path106"
   d="M 206,424.2 V 421 c 0,-0.4 -0.1,-0.7 -0.3,-0.9 -0.2,-0.2 -0.5,-0.3 -0.8,-0.3 -0.5,0 -0.9,0.1 -1.1,0.4 -0.2,0.3 -0.4,0.7 -0.4,1.4 v 2.5 h -0.7 v -4.8 h 0.6 l 0.1,0.7 v 0 c 0.1,-0.2 0.4,-0.4 0.6,-0.6 0.2,-0.2 0.6,-0.2 0.9,-0.2 0.6,0 1,0.1 1.3,0.4 0.3,0.3 0.4,0.7 0.4,1.3 V 424 H 206 Z"
   class="st0" />
		<path
   style="fill:#808285"
   id="path108"
   d="m 211.4,423.5 v 0 c -0.4,0.5 -0.9,0.7 -1.6,0.7 -0.6,0 -1.1,-0.2 -1.5,-0.6 -0.4,-0.4 -0.5,-1 -0.5,-1.8 0,-0.8 0.2,-1.4 0.5,-1.9 0.4,-0.4 0.8,-0.7 1.5,-0.7 0.7,0 1.2,0.2 1.5,0.7 h 0.1 v -0.3 -0.3 -2 h 0.7 v 6.8 h -0.6 z m -1.4,0.1 c 0.5,0 0.9,-0.1 1.1,-0.4 0.2,-0.3 0.3,-0.7 0.3,-1.3 v -0.2 c 0,-0.7 -0.1,-1.2 -0.3,-1.5 -0.2,-0.3 -0.6,-0.4 -1.1,-0.4 -0.4,0 -0.8,0.2 -1,0.5 -0.2,0.3 -0.3,0.8 -0.3,1.4 0,0.6 0.1,1.1 0.3,1.4 0.2,0.4 0.5,0.5 1,0.5 z"
   class="st0" />
		<path
   style="fill:#808285"
   id="path110"
   d="m 216.7,421.5 v 2.7 H 216 v -6.4 h 1.8 c 0.8,0 1.4,0.2 1.7,0.5 0.4,0.3 0.6,0.8 0.6,1.4 0,0.9 -0.4,1.4 -1.3,1.7 l 1.7,2.9 h -0.9 l -1.6,-2.7 h -1.3 z m 0,-0.7 h 1 c 0.5,0 0.9,-0.1 1.2,-0.3 0.2,-0.2 0.4,-0.5 0.4,-0.9 0,-0.4 -0.1,-0.7 -0.4,-0.9 -0.3,-0.2 -0.7,-0.3 -1.2,-0.3 h -1 z"
   class="st0" />
		<path
   style="fill:#808285"
   id="path112"
   d="m 223.3,424.2 c -0.7,0 -1.3,-0.2 -1.7,-0.7 -0.4,-0.4 -0.6,-1 -0.6,-1.8 0,-0.8 0.2,-1.4 0.6,-1.9 0.4,-0.5 0.9,-0.7 1.5,-0.7 0.6,0 1.1,0.2 1.4,0.6 0.3,0.4 0.5,0.9 0.5,1.6 v 0.5 h -3.3 c 0,0.6 0.2,1 0.4,1.3 0.3,0.3 0.7,0.4 1.1,0.4 0.5,0 1,-0.1 1.5,-0.3 v 0.7 c -0.3,0.1 -0.5,0.2 -0.7,0.2 -0.1,0.1 -0.3,0.1 -0.7,0.1 z m -0.2,-4.3 c -0.4,0 -0.7,0.1 -0.9,0.4 -0.2,0.3 -0.4,0.6 -0.4,1 h 2.5 c 0,-0.5 -0.1,-0.8 -0.3,-1.1 -0.2,-0.2 -0.5,-0.3 -0.9,-0.3 z"
   class="st0" />
		<path
   style="fill:#808285"
   id="path114"
   d="m 229.4,422.8 c 0,0.4 -0.2,0.8 -0.5,1 -0.3,0.2 -0.8,0.4 -1.4,0.4 -0.6,0 -1.1,-0.1 -1.5,-0.3 v -0.7 c 0.2,0.1 0.5,0.2 0.7,0.3 0.2,0.1 0.5,0.1 0.8,0.1 0.4,0 0.7,-0.1 0.9,-0.2 0.2,-0.1 0.3,-0.3 0.3,-0.6 0,-0.2 -0.1,-0.3 -0.2,-0.5 -0.2,-0.1 -0.5,-0.3 -1,-0.5 -0.4,-0.2 -0.8,-0.3 -1,-0.4 -0.2,-0.1 -0.3,-0.3 -0.4,-0.4 -0.1,-0.1 -0.1,-0.3 -0.1,-0.6 0,-0.4 0.2,-0.7 0.5,-0.9 0.3,-0.2 0.8,-0.3 1.3,-0.3 0.5,0 1,0.1 1.5,0.3 l -0.3,0.6 c -0.5,-0.2 -0.9,-0.3 -1.3,-0.3 -0.3,0 -0.6,0.1 -0.8,0.2 -0.2,0.1 -0.3,0.3 -0.3,0.4 0,0.1 0,0.2 0.1,0.3 0.1,0.1 0.2,0.2 0.3,0.3 0.1,0.1 0.4,0.2 0.8,0.4 0.6,0.2 1,0.4 1.2,0.6 0.3,0.3 0.4,0.5 0.4,0.8 z"
   class="st0" />
		<path
   style="fill:#808285"
   id="path116"
   d="m 232.5,424.2 c -0.7,0 -1.3,-0.2 -1.7,-0.7 -0.4,-0.4 -0.6,-1 -0.6,-1.8 0,-0.8 0.2,-1.4 0.6,-1.9 0.4,-0.5 0.9,-0.7 1.5,-0.7 0.6,0 1.1,0.2 1.4,0.6 0.3,0.4 0.5,0.9 0.5,1.6 v 0.5 H 231 c 0,0.6 0.2,1 0.4,1.3 0.3,0.3 0.7,0.4 1.1,0.4 0.5,0 1,-0.1 1.5,-0.3 v 0.7 c -0.3,0.1 -0.5,0.2 -0.7,0.2 -0.2,0.1 -0.5,0.1 -0.8,0.1 z m -0.2,-4.3 c -0.4,0 -0.7,0.1 -0.9,0.4 -0.2,0.3 -0.4,0.6 -0.4,1 h 2.5 c 0,-0.5 -0.1,-0.8 -0.3,-1.1 -0.2,-0.2 -0.5,-0.3 -0.9,-0.3 z"
   class="st0" />
		<path
   style="fill:#808285"
   id="path118"
   d="m 238.4,424.2 -0.1,-0.7 v 0 c -0.2,0.3 -0.5,0.5 -0.7,0.6 -0.2,0.1 -0.5,0.2 -0.9,0.2 -0.5,0 -0.9,-0.1 -1.1,-0.4 -0.3,-0.2 -0.4,-0.6 -0.4,-1.1 0,-1 0.8,-1.5 2.3,-1.5 h 0.8 V 421 c 0,-0.4 -0.1,-0.7 -0.2,-0.8 -0.2,-0.2 -0.4,-0.3 -0.8,-0.3 -0.4,0 -0.9,0.1 -1.4,0.4 l -0.2,-0.6 c 0.2,-0.1 0.5,-0.2 0.8,-0.3 0.3,-0.1 0.6,-0.1 0.9,-0.1 0.6,0 1,0.1 1.3,0.4 0.3,0.3 0.4,0.7 0.4,1.2 v 3.3 z m -1.6,-0.6 c 0.5,0 0.8,-0.1 1.1,-0.4 0.3,-0.2 0.4,-0.6 0.4,-1 v -0.4 h -0.7 c -0.6,0 -1,0.1 -1.3,0.3 -0.3,0.2 -0.4,0.4 -0.4,0.7 0,0.3 0.1,0.5 0.2,0.6 0.1,0.2 0.4,0.2 0.7,0.2 z"
   class="st0" />
		<path
   style="fill:#808285"
   id="path120"
   d="m 242.6,419.2 c 0.2,0 0.4,0 0.6,0.1 L 243,420 c -0.2,0 -0.4,-0.1 -0.5,-0.1 -0.4,0 -0.7,0.2 -1,0.5 -0.3,0.3 -0.4,0.7 -0.4,1.2 v 2.6 h -0.7 v -4.8 h 0.6 l 0.1,0.9 v 0 c 0.2,-0.3 0.4,-0.6 0.6,-0.7 0.3,-0.3 0.6,-0.4 0.9,-0.4 z"
   class="st0" />
		<path
   style="fill:#808285"
   id="path122"
   d="m 245.9,424.2 c -0.7,0 -1.2,-0.2 -1.6,-0.6 -0.4,-0.4 -0.6,-1 -0.6,-1.8 0,-0.8 0.2,-1.4 0.6,-1.9 0.4,-0.4 0.9,-0.7 1.7,-0.7 0.2,0 0.5,0 0.7,0.1 0.2,0 0.4,0.1 0.5,0.2 l -0.2,0.6 c -0.2,-0.1 -0.3,-0.1 -0.5,-0.2 -0.2,0 -0.4,-0.1 -0.5,-0.1 -1,0 -1.5,0.6 -1.5,1.9 0,0.6 0.1,1 0.4,1.4 0.2,0.3 0.6,0.5 1.1,0.5 0.4,0 0.8,-0.1 1.2,-0.3 v 0.6 c -0.4,0.3 -0.8,0.3 -1.3,0.3 z"
   class="st0" />
		<path
   style="fill:#808285"
   id="path124"
   d="M 251.5,424.2 V 421 c 0,-0.4 -0.1,-0.7 -0.3,-0.9 -0.2,-0.2 -0.5,-0.3 -0.8,-0.3 -0.5,0 -0.9,0.1 -1.1,0.4 -0.2,0.3 -0.4,0.7 -0.4,1.4 v 2.5 h -0.7 v -6.8 h 0.7 v 2.1 c 0,0.2 0,0.5 0,0.6 v 0 c 0.1,-0.2 0.3,-0.4 0.6,-0.5 0.3,-0.1 0.6,-0.2 0.9,-0.2 0.6,0 1,0.1 1.3,0.4 0.3,0.3 0.4,0.7 0.4,1.3 v 3.1 h -0.6 z"
   class="st0" />
		<path
   style="fill:#808285"
   id="path126"
   d="m 255.6,424.2 c -0.7,0 -1.3,-0.2 -1.7,-0.7 -0.4,-0.4 -0.6,-1 -0.6,-1.8 0,-0.8 0.2,-1.4 0.6,-1.9 0.4,-0.5 0.9,-0.7 1.5,-0.7 0.6,0 1.1,0.2 1.4,0.6 0.3,0.4 0.5,0.9 0.5,1.6 v 0.5 H 254 c 0,0.6 0.2,1 0.4,1.3 0.3,0.3 0.7,0.4 1.1,0.4 0.5,0 1,-0.1 1.5,-0.3 v 0.7 c -0.3,0.1 -0.5,0.2 -0.7,0.2 -0.1,0.1 -0.3,0.1 -0.7,0.1 z m -0.2,-4.3 c -0.4,0 -0.7,0.1 -0.9,0.4 -0.2,0.3 -0.4,0.6 -0.4,1 h 2.5 c 0,-0.5 -0.1,-0.8 -0.3,-1.1 -0.2,-0.2 -0.5,-0.3 -0.9,-0.3 z"
   class="st0" />
		<path
   style="fill:#808285"
   id="path128"
   d="m 260.8,419.2 c 0.2,0 0.4,0 0.6,0.1 l -0.1,0.7 c -0.2,0 -0.4,-0.1 -0.5,-0.1 -0.4,0 -0.7,0.2 -1,0.5 -0.3,0.3 -0.4,0.7 -0.4,1.2 v 2.6 h -0.7 v -4.8 h 0.6 l 0.1,0.9 v 0 c 0.2,-0.3 0.4,-0.6 0.6,-0.7 0.2,-0.3 0.5,-0.4 0.8,-0.4 z"
   class="st0" />
		<path
   style="fill:#808285"
   id="path130"
   d="m 265.3,422.8 c 0,0.4 -0.2,0.8 -0.5,1 -0.3,0.2 -0.8,0.4 -1.4,0.4 -0.6,0 -1.1,-0.1 -1.5,-0.3 v -0.7 c 0.2,0.1 0.5,0.2 0.7,0.3 0.2,0.1 0.5,0.1 0.8,0.1 0.4,0 0.7,-0.1 0.9,-0.2 0.2,-0.1 0.3,-0.3 0.3,-0.6 0,-0.2 -0.1,-0.3 -0.2,-0.5 -0.2,-0.1 -0.5,-0.3 -1,-0.5 -0.4,-0.2 -0.8,-0.3 -1,-0.4 -0.2,-0.1 -0.3,-0.3 -0.4,-0.4 -0.1,-0.1 -0.1,-0.3 -0.1,-0.6 0,-0.4 0.2,-0.7 0.5,-0.9 0.3,-0.2 0.8,-0.3 1.3,-0.3 0.5,0 1,0.1 1.5,0.3 l -0.3,0.6 c -0.5,-0.2 -0.9,-0.3 -1.3,-0.3 -0.3,0 -0.6,0.1 -0.8,0.2 -0.2,0.1 -0.3,0.3 -0.3,0.4 0,0.1 0,0.2 0.1,0.3 0.1,0.1 0.2,0.2 0.3,0.3 0.1,0.1 0.4,0.2 0.8,0.4 0.6,0.2 1,0.4 1.2,0.6 0.3,0.3 0.4,0.5 0.4,0.8 z"
   class="st0" />
	</g>
</g>
</svg>