<?xml version="1.0" encoding="UTF-8" standalone="no"?>
<!-- Generator: Adobe Illustrator 24.1.0, SVG Export Plug-In . SVG Version: 6.00 Build 0)  -->

<svg
   xmlns:dc="http://purl.org/dc/elements/1.1/"
   xmlns:cc="http://creativecommons.org/ns#"
   xmlns:rdf="http://www.w3.org/1999/02/22-rdf-syntax-ns#"
   xmlns:svg="http://www.w3.org/2000/svg"
   xmlns="http://www.w3.org/2000/svg"
   xmlns:sodipodi="http://sodipodi.sourceforge.net/DTD/sodipodi-0.dtd"
   xmlns:inkscape="http://www.inkscape.org/namespaces/inkscape"
   version="1.1"
   id="Layer_1"
   x="0px"
   y="0px"
   viewBox="0 0 1050.6638 418.4075"
   xml:space="preserve"
   sodipodi:docname="saorcidhub.svg"
   width="1050.6638"
   height="418.4075"
   inkscape:version="0.92.4 (5da689c313, 2019-01-14)"><metadata
   id="metadata75"><rdf:RDF><cc:Work
       rdf:about=""><dc:format>image/svg+xml</dc:format><dc:type
         rdf:resource="http://purl.org/dc/dcmitype/StillImage" /><dc:title></dc:title></cc:Work></rdf:RDF></metadata><defs
   id="defs73" /><sodipodi:namedview
   pagecolor="#ffffff"
   bordercolor="#666666"
   borderopacity="1"
   objecttolerance="10"
   gridtolerance="10"
   guidetolerance="10"
   inkscape:pageopacity="0"
   inkscape:pageshadow="2"
   inkscape:window-width="1920"
   inkscape:window-height="1017"
   id="namedview71"
   showgrid="false"
   fit-margin-top="10"
   fit-margin-left="10"
   fit-margin-right="10"
   fit-margin-bottom="10"
   inkscape:zoom="0.1775"
   inkscape:cx="240.6675"
   inkscape:cy="-91.589996"
   inkscape:window-x="-8"
   inkscape:window-y="-8"
   inkscape:window-maximized="1"
   inkscape:current-layer="Layer_1" />
<style
   type="text/css"
   id="style2">
	.st0{fill:#141313;}
	.st1{fill:#A6CE39;}
	.st2{fill:#DA291C;}
</style>
<g
   id="g68"
   transform="translate(-274.66625,-290.79749)">
	<g
   id="g38">
		<rect
   x="773.07001"
   y="383.84"
   class="st0"
   width="5.5300002"
   height="45.529999"
   id="rect4"
   style="fill:#141313" />
		<polygon
   class="st0"
   points="849.49,417.73 815.02,381.57 815.02,429.37 820.55,429.37 820.55,395.48 855.02,431.64 855.02,383.84 849.49,383.84 "
   id="polygon6"
   style="fill:#141313" />
		<polygon
   class="st0"
   points="886.88,389.05 898.59,389.05 898.59,429.37 904.12,429.37 904.12,389.05 915.82,389.05 915.82,383.84 886.88,383.84 "
   id="polygon8"
   style="fill:#141313" />
		<polygon
   class="st0"
   points="947.69,429.37 950.75,429.37 953.22,429.37 973.71,429.37 973.71,424.16 953.22,424.16 953.22,407.26 972.4,407.26 972.4,402.05 953.22,402.05 953.22,389.05 973.71,389.05 973.71,383.84 953.22,383.84 950.75,383.84 947.69,383.84 "
   id="polygon10"
   style="fill:#141313" />
		<polygon
   class="st0"
   points="1054.35,429.37 1048.82,381.57 1030.61,414.54 1012.4,381.57 1006.87,429.37 1012.4,429.37 1015.78,398.61 1030.61,425.14 1045.44,398.61 1048.82,429.37 "
   id="polygon12"
   style="fill:#141313" />
		<path
   class="st0"
   d="m 1111.55,406.9 c -1.41,-0.98 -3.05,-1.7 -4.91,-2.18 -0.28,-0.07 -0.58,-0.13 -0.87,-0.19 0.42,-0.12 0.83,-0.25 1.22,-0.4 2.02,-0.78 3.59,-1.93 4.71,-3.45 1.13,-1.52 1.69,-3.34 1.69,-5.46 0,-2.6 -0.56,-4.74 -1.69,-6.41 -1.13,-1.67 -2.7,-2.92 -4.71,-3.74 -2.01,-0.82 -4.39,-1.24 -7.12,-1.24 h -11.71 v 45.53 h 12.36 c 2.95,0 5.58,-0.49 7.9,-1.46 2.32,-0.98 4.16,-2.45 5.53,-4.42 1.37,-1.97 2.05,-4.46 2.05,-7.45 0,-2.08 -0.39,-3.88 -1.17,-5.4 -0.78,-1.51 -1.87,-2.76 -3.28,-3.73 z m -11.68,-18.18 c 2.3,0 4.21,0.6 5.72,1.79 1.52,1.19 2.28,2.87 2.28,5.04 0,1.43 -0.35,2.64 -1.04,3.64 -0.69,1 -1.65,1.76 -2.86,2.28 -1.21,0.52 -2.58,0.78 -4.1,0.78 h -6.18 v -13.53 z m 9.34,31.74 c -0.85,1.3 -2.02,2.3 -3.51,2.99 -1.5,0.69 -3.22,1.04 -5.17,1.04 h -6.83 v -17.43 h 6.83 c 1.47,0 2.82,0.19 4.03,0.55 1.21,0.37 2.27,0.92 3.15,1.66 0.89,0.74 1.57,1.65 2.05,2.73 0.48,1.08 0.72,2.32 0.72,3.71 -0.01,1.86 -0.43,3.45 -1.27,4.75 z"
   id="path14"
   inkscape:connector-curvature="0"
   style="fill:#141313" />
		<polygon
   class="st0"
   points="1150.47,429.37 1153.53,429.37 1156,429.37 1176.49,429.37 1176.49,424.16 1156,424.16 1156,407.26 1175.18,407.26 1175.18,402.05 1156,402.05 1156,389.05 1176.49,389.05 1176.49,383.84 1156,383.84 1153.53,383.84 1150.47,383.84 "
   id="polygon16"
   style="fill:#141313" />
		<polygon
   class="st0"
   points="1217.78,403.45 1217.78,383.84 1212.25,383.84 1212.25,429.37 1217.78,429.37 1217.78,407.28 1236.64,429.37 1243.47,429.37 1222.79,405.17 1242.5,383.84 1235.67,383.84 "
   id="polygon18"
   style="fill:#141313" />
		<path
   class="st0"
   d="m 1313.61,397.34 c -1.15,-2.84 -2.76,-5.31 -4.85,-7.41 -2.08,-2.1 -4.52,-3.75 -7.32,-4.94 -2.8,-1.19 -5.86,-1.79 -9.2,-1.79 -3.3,0 -6.35,0.6 -9.17,1.79 -2.82,1.19 -5.27,2.84 -7.35,4.94 -2.08,2.1 -3.7,4.58 -4.85,7.41 -1.15,2.84 -1.72,5.93 -1.72,9.27 0,3.3 0.57,6.37 1.72,9.24 1.15,2.86 2.76,5.34 4.85,7.45 2.08,2.1 4.53,3.75 7.35,4.94 2.82,1.19 5.87,1.79 9.17,1.79 3.34,0 6.41,-0.6 9.2,-1.79 2.8,-1.19 5.24,-2.84 7.32,-4.94 2.08,-2.1 3.7,-4.58 4.85,-7.45 1.15,-2.86 1.72,-5.94 1.72,-9.24 0.01,-3.34 -0.57,-6.43 -1.72,-9.27 z m -6.37,18.43 c -1.5,2.69 -3.53,4.81 -6.11,6.37 -2.58,1.56 -5.54,2.34 -8.88,2.34 -3.3,0 -6.24,-0.78 -8.84,-2.34 -2.6,-1.56 -4.65,-3.69 -6.15,-6.37 -1.5,-2.69 -2.24,-5.74 -2.24,-9.17 0,-3.42 0.75,-6.48 2.24,-9.17 1.5,-2.69 3.54,-4.81 6.15,-6.37 2.6,-1.56 5.55,-2.34 8.84,-2.34 3.34,0 6.3,0.78 8.88,2.34 2.58,1.56 4.62,3.69 6.11,6.37 1.5,2.69 2.24,5.75 2.24,9.17 0,3.43 -0.75,6.49 -2.24,9.17 z"
   id="path20"
   inkscape:connector-curvature="0"
   style="fill:#141313" />
		<path
   class="st0"
   d="m 810.08,484.33 c -2.08,-2.1 -4.52,-3.75 -7.32,-4.94 -2.8,-1.19 -5.86,-1.79 -9.2,-1.79 -3.29,0 -6.35,0.6 -9.17,1.79 -2.82,1.19 -5.27,2.84 -7.35,4.94 -2.08,2.1 -3.7,4.58 -4.85,7.41 -1.15,2.84 -1.72,5.93 -1.72,9.27 0,3.3 0.57,6.37 1.72,9.24 1.15,2.86 2.76,5.34 4.85,7.45 2.08,2.1 4.53,3.75 7.35,4.94 2.82,1.19 5.88,1.79 9.17,1.79 3.34,0 6.41,-0.6 9.2,-1.79 2.8,-1.19 5.24,-2.84 7.32,-4.94 2.08,-2.1 3.7,-4.58 4.84,-7.45 1.15,-2.86 1.72,-5.94 1.72,-9.24 0,-3.34 -0.58,-6.43 -1.72,-9.27 -1.15,-2.84 -2.76,-5.31 -4.84,-7.41 z m -1.53,25.85 c -1.5,2.69 -3.53,4.81 -6.11,6.37 -2.58,1.56 -5.54,2.34 -8.88,2.34 -3.29,0 -6.24,-0.78 -8.84,-2.34 -2.6,-1.56 -4.65,-3.68 -6.15,-6.37 -1.5,-2.69 -2.24,-5.75 -2.24,-9.17 0,-3.42 0.75,-6.48 2.24,-9.17 1.5,-2.69 3.54,-4.81 6.15,-6.37 2.6,-1.56 5.55,-2.34 8.84,-2.34 3.34,0 6.3,0.78 8.88,2.34 2.58,1.56 4.62,3.69 6.11,6.37 1.5,2.69 2.24,5.75 2.24,9.17 0,3.43 -0.75,6.48 -2.24,9.17 z"
   id="path22"
   inkscape:connector-curvature="0"
   style="fill:#141313" />
		<path
   class="st0"
   d="m 870.72,503.91 c 2.32,-1.11 4.16,-2.69 5.53,-4.75 1.37,-2.06 2.05,-4.48 2.05,-7.25 0,-2.82 -0.68,-5.25 -2.05,-7.28 -1.37,-2.04 -3.21,-3.61 -5.53,-4.71 -2.32,-1.11 -4.95,-1.66 -7.9,-1.66 h -6.83 -2.47 -3.06 v 45.52 h 5.53 v -18.21 h 5.54 l 12.67,18.21 h 6.83 l -13.58,-18.74 c 1.15,-0.28 2.25,-0.65 3.27,-1.13 z m -14.73,-20.78 h 6.83 c 1.95,0 3.67,0.35 5.17,1.04 1.5,0.69 2.67,1.69 3.51,2.99 0.85,1.3 1.27,2.88 1.27,4.75 0,1.86 -0.42,3.45 -1.27,4.75 -0.85,1.3 -2.02,2.3 -3.51,2.99 -1.5,0.69 -3.22,1.04 -5.17,1.04 h -6.83 z"
   id="path24"
   inkscape:connector-curvature="0"
   style="fill:#141313" />
		<path
   class="st0"
   d="m 933.06,477.6 c -3.17,0 -6.12,0.58 -8.88,1.72 -2.75,1.15 -5.17,2.77 -7.25,4.88 -2.08,2.1 -3.71,4.58 -4.88,7.45 -1.17,2.86 -1.76,5.98 -1.76,9.36 0,3.38 0.58,6.5 1.76,9.37 1.17,2.86 2.8,5.34 4.88,7.45 2.08,2.1 4.5,3.73 7.25,4.88 2.75,1.15 5.71,1.72 8.88,1.72 3.34,0 6.13,-0.41 8.39,-1.24 2.25,-0.82 4.33,-2.08 6.24,-3.77 v -7.28 c -1.04,1.34 -2.3,2.53 -3.77,3.54 -1.47,1.02 -3.11,1.81 -4.91,2.37 -1.8,0.56 -3.78,0.85 -5.95,0.85 -2.99,0 -5.77,-0.76 -8.32,-2.28 -2.56,-1.52 -4.63,-3.62 -6.21,-6.31 -1.58,-2.69 -2.37,-5.79 -2.37,-9.3 0,-3.55 0.79,-6.67 2.37,-9.33 1.58,-2.67 3.65,-4.76 6.21,-6.28 2.56,-1.52 5.33,-2.28 8.32,-2.28 2.17,0 4.15,0.28 5.95,0.85 1.8,0.56 3.44,1.36 4.91,2.37 1.47,1.02 2.73,2.2 3.77,3.54 v -7.28 c -1.91,-1.69 -3.99,-2.95 -6.24,-3.77 -2.26,-0.82 -5.05,-1.23 -8.39,-1.23 z"
   id="path26"
   inkscape:connector-curvature="0"
   style="fill:#141313" />
		<rect
   x="983.46002"
   y="478.25"
   class="st0"
   width="5.5300002"
   height="45.52"
   id="rect28"
   style="fill:#141313" />
		<path
   class="st0"
   d="m 1050.84,481.11 c -3.43,-1.91 -7.35,-2.86 -11.77,-2.86 h -8.13 -2.47 -3.06 v 45.52 h 3.06 2.47 8.13 c 4.42,0 8.35,-0.95 11.77,-2.86 3.42,-1.91 6.11,-4.56 8.06,-7.97 1.95,-3.4 2.93,-7.38 2.93,-11.93 0,-4.55 -0.98,-8.53 -2.93,-11.93 -1.95,-3.41 -4.64,-6.06 -8.06,-7.97 z m 4.22,27.06 c -0.82,2.13 -1.99,3.93 -3.51,5.43 -1.52,1.5 -3.34,2.65 -5.46,3.45 -2.13,0.8 -4.47,1.2 -7.02,1.2 h -8.13 v -34.47 h 8.13 c 2.56,0 4.9,0.4 7.02,1.2 2.12,0.8 3.94,1.95 5.46,3.45 1.52,1.5 2.69,3.31 3.51,5.43 0.82,2.13 1.24,4.51 1.24,7.15 0,2.65 -0.41,5.03 -1.24,7.16 z"
   id="path30"
   inkscape:connector-curvature="0"
   style="fill:#141313" />
		<polygon
   class="st0"
   points="778.6,572.66 773.07,572.66 773.07,618.18 778.6,618.18 778.6,596.07 803.64,596.07 803.64,618.18 809.17,618.18 809.17,572.66 803.64,572.66 803.64,590.87 778.6,590.87 "
   id="polygon32"
   style="fill:#141313" />
		<path
   class="st0"
   d="m 870.69,603.22 c 0,3.12 -0.85,5.64 -2.54,7.54 -1.69,1.91 -4.16,2.86 -7.41,2.86 -3.25,0 -5.72,-0.95 -7.41,-2.86 -1.69,-1.91 -2.54,-4.42 -2.54,-7.54 v -30.57 h -5.53 v 30.57 c 0,2.25 0.36,4.34 1.07,6.24 0.72,1.91 1.76,3.56 3.12,4.94 1.36,1.38 3,2.47 4.91,3.25 1.91,0.78 4.03,1.17 6.37,1.17 2.34,0 4.47,-0.39 6.37,-1.17 1.91,-0.78 3.54,-1.86 4.91,-3.25 1.37,-1.39 2.41,-3.03 3.12,-4.94 0.72,-1.91 1.07,-3.99 1.07,-6.24 v -30.57 h -5.53 v 30.57 z"
   id="path34"
   inkscape:connector-curvature="0"
   style="fill:#141313" />
		<path
   class="st0"
   d="m 935.69,595.71 c -1.41,-0.98 -3.05,-1.7 -4.91,-2.18 -0.28,-0.07 -0.57,-0.13 -0.86,-0.19 0.42,-0.12 0.83,-0.25 1.22,-0.4 2.02,-0.78 3.59,-1.93 4.71,-3.45 1.13,-1.52 1.69,-3.34 1.69,-5.46 0,-2.6 -0.56,-4.74 -1.69,-6.41 -1.13,-1.67 -2.7,-2.92 -4.71,-3.74 -2.02,-0.82 -4.39,-1.24 -7.12,-1.24 h -11.71 v 45.52 h 12.36 c 2.95,0 5.58,-0.49 7.9,-1.46 2.32,-0.98 4.16,-2.45 5.53,-4.42 1.37,-1.97 2.05,-4.46 2.05,-7.45 0,-2.08 -0.39,-3.88 -1.17,-5.4 -0.78,-1.5 -1.88,-2.74 -3.29,-3.72 z m -11.67,-18.18 c 2.3,0 4.21,0.6 5.72,1.79 1.52,1.19 2.28,2.87 2.28,5.04 0,1.43 -0.35,2.65 -1.04,3.64 -0.69,1 -1.65,1.76 -2.86,2.28 -1.21,0.52 -2.58,0.78 -4.1,0.78 h -6.18 v -13.53 z m 9.33,31.74 c -0.85,1.3 -2.02,2.3 -3.51,2.99 -1.5,0.69 -3.22,1.04 -5.17,1.04 h -6.83 v -17.43 h 6.83 c 1.47,0 2.82,0.18 4.03,0.55 1.21,0.37 2.27,0.92 3.15,1.66 0.89,0.74 1.57,1.65 2.05,2.73 0.48,1.08 0.72,2.32 0.72,3.71 0,1.87 -0.42,3.45 -1.27,4.75 z"
   id="path36"
   inkscape:connector-curvature="0"
   style="fill:#141313" />
	</g>
	<g
   id="g66">
		<path
   class="st1"
   d="m 535.52,307.56 -0.13,0.05 51.52,51.52 37.83,37.83 51.52,51.52 0.08,-0.02 C 667.61,415.74 650.42,384.8 624.74,359.13 599.1,333.49 568.2,316.3 535.52,307.56 Z"
   id="path40"
   inkscape:connector-curvature="0"
   style="fill:#a6ce39" />
		<path
   class="st2"
   d="m 291.42,551.59 0.06,-0.07 L 343,500 l -51.52,-51.52 -0.06,-0.02 c -9,33.75 -9.01,69.39 0,103.13 z"
   id="path42"
   inkscape:connector-curvature="0"
   style="fill:#da291c" />
		<path
   class="st2"
   d="m 432.22,307.58 0.13,0.03 51.52,51.52 v 0 l 51.52,-51.52 0.13,-0.05 c -33.8,-9.03 -69.51,-9.01 -103.3,0.02 z"
   id="path44"
   inkscape:connector-curvature="0"
   style="fill:#da291c" />
		<path
   class="st1"
   d="m 343,359.13 c -25.67,25.67 -42.85,56.61 -51.58,89.33 l 0.06,0.02 51.52,-51.52 37.83,-37.83 51.52,-51.52 -0.13,-0.03 c -32.68,8.74 -63.58,25.91 -89.22,51.55 z"
   id="path46"
   inkscape:connector-curvature="0"
   style="fill:#a6ce39" />
		<path
   class="st2"
   d="m 483.87,640.87 -51.52,51.52 -0.04,0.07 c 33.73,9 69.36,8.99 103.09,-0.01 -0.01,-0.04 -0.01,-0.06 -0.01,-0.06 z"
   id="path48"
   inkscape:connector-curvature="0"
   style="fill:#da291c" />
		<path
   class="st2"
   d="m 676.33,448.46 -0.08,0.02 -51.51,51.52 51.52,51.52 0.06,0.03 c 8.99,-33.73 9.01,-69.36 0.01,-103.09 z"
   id="path50"
   inkscape:connector-curvature="0"
   style="fill:#da291c" />
		<path
   class="st1"
   d="m 676.32,551.55 -0.06,-0.03 -51.52,51.52 -37.83,37.83 -51.52,51.52 c 0,0 0,0.02 0.01,0.06 32.73,-8.73 63.67,-25.91 89.34,-51.58 25.67,-25.67 42.85,-56.6 51.58,-89.32 z"
   id="path52"
   inkscape:connector-curvature="0"
   style="fill:#a6ce39" />
		<path
   class="st1"
   d="M 380.83,640.87 343,603.04 l -51.52,-51.52 -0.06,0.07 c 8.73,32.7 25.93,63.62 51.58,89.28 25.67,25.67 56.6,42.86 89.31,51.59 l 0.04,-0.07 z"
   id="path54"
   inkscape:connector-curvature="0"
   style="fill:#a6ce39" />
		<path
   class="st1"
   d="M 624.74,500 483.87,640.87 c 77.8,0 140.87,-63.07 140.87,-140.87 z"
   id="path56"
   inkscape:connector-curvature="0"
   style="fill:#a6ce39" />
		<path
   class="st1"
   d="m 343,500 c 0,0 0,0 0,0 L 483.87,359.13 C 406.07,359.13 343,422.2 343,500 Z"
   id="path58"
   inkscape:connector-curvature="0"
   style="fill:#a6ce39" />
		<path
   class="st1"
   d="m 343,500 c 0,77.8 63.07,140.87 140.87,140.87 z"
   id="path60"
   inkscape:connector-curvature="0"
   style="fill:#a6ce39" />
		<path
   class="st1"
   d="M 483.87,359.13 624.74,500 c 0,-77.8 -63.07,-140.87 -140.87,-140.87 z"
   id="path62"
   inkscape:connector-curvature="0"
   style="fill:#a6ce39" />
		<circle
   class="st1"
   cx="483.87"
   cy="500"
   r="82.519997"
   id="circle64"
   style="fill:#a6ce39" />
	</g>
</g>
</svg>